<svg width="24" height="24" viewBox="0 0 24 24" fill="none" xmlns="http://www.w3.org/2000/svg">
<circle cx="12" cy="12" r="12" fill="#2669FF"/>
<path fill-rule="evenodd" clip-rule="evenodd" d="M5.37486 8.02608C5.3852 8.01494 5.39556 8.00383 5.40596 7.99275L5.74275 7.65596C5.62697 7.76465 5.51465 7.87698 5.40596 7.99275L5.37486 8.02608Z" fill="white"/>
<path fill-rule="evenodd" clip-rule="evenodd" d="M20.625 10.875C20.625 6.73286 17.2671 3.375 13.125 3.375C10.9683 3.375 9.02415 4.28535 7.65596 5.74275L5.74275 7.65596L5.40596 7.99275C5.39556 8.00383 5.3852 8.01494 5.37486 8.02608C4.13377 9.3642 3.375 11.156 3.375 13.125C3.375 17.2671 6.73286 20.625 10.875 20.625C12.8917 20.625 14.7225 19.829 16.0704 18.5341L18.4578 16.1486C19.7977 14.7938 20.625 12.931 20.625 10.875ZM15.8158 15.8158C15.0166 16.2521 14.0997 16.5 13.125 16.5C10.0184 16.5 7.5 13.9816 7.5 10.875C7.5 9.90027 7.74792 8.98345 8.18415 8.18415C8.98345 7.74793 9.90027 7.5 10.875 7.5C13.9816 7.5 16.5 10.0184 16.5 13.125C16.5 14.0997 16.2521 15.0166 15.8158 15.8158ZM11.0933 5.62812C15.062 5.74155 18.2585 8.93804 18.3719 12.9067C18.6161 12.2765 18.75 11.5914 18.75 10.875C18.75 7.7684 16.2316 5.25 13.125 5.25C12.4086 5.25 11.7235 5.38393 11.0933 5.62812ZM5.25 13.125C5.25 12.4086 5.38393 11.7235 5.62812 11.0933C5.74155 15.062 8.93804 18.2585 12.9067 18.3719C12.2765 18.6161 11.5914 18.75 10.875 18.75C7.7684 18.75 5.25 16.2316 5.25 13.125Z" fill="white"/>
</svg>